<svg width="30" height="30" viewBox="0 0 30 30" fill="none" xmlns="http://www.w3.org/2000/svg">
<path d="M11.3741 11.3112C11.3741 9.63306 10.2327 9.63306 10.2327 9.63306H5.54517V13.2307H9.94204C10.7014 13.2307 11.3741 12.987 11.3741 11.3112Z" fill="white"/>
<path d="M10.2327 15.7173H5.54517V20.0251H10.0217C10.6944 20.0064 11.9389 19.7907 11.9389 17.9298C11.9319 15.7032 10.2327 15.7173 10.2327 15.7173Z" fill="white"/>
<path d="M22.2489 13.2305C19.7575 13.2305 19.4106 15.7148 19.4106 15.7148H24.7075C24.7075 15.7148 24.7403 13.2305 22.2489 13.2305Z" fill="white"/>
<path d="M26.0741 0.506348H3.92563C3.01872 0.506348 2.14895 0.866619 1.50766 1.50791C0.866374 2.14919 0.506104 3.01896 0.506104 3.92588V26.072C0.506104 26.9789 0.866374 27.8487 1.50766 28.4899C2.14895 29.1312 3.01872 29.4915 3.92563 29.4915H26.0717C26.9786 29.4915 27.8484 29.1312 28.4897 28.4899C29.131 27.8487 29.4913 26.9789 29.4913 26.072V3.92588C29.4913 3.01937 29.1313 2.14995 28.4905 1.50873C27.8498 0.867514 26.9806 0.506969 26.0741 0.506348V0.506348ZM18.717 7.71572H25.3686V9.70322H18.717V7.71572ZM15.3538 18.1313C15.3538 23.0532 10.2327 22.8915 10.2327 22.8915H1.84204V6.7665H10.2327C12.7827 6.7665 14.7959 8.17275 14.7959 11.0603C14.7959 13.9478 12.335 14.1282 12.335 14.1282C15.5788 14.1282 15.3538 18.1313 15.3538 18.1313ZM27.7967 17.8688H19.453C19.453 20.8642 22.2913 20.6813 22.2913 20.6813C24.9702 20.6813 24.8694 18.947 24.8694 18.947H27.703C27.703 23.5501 22.1858 23.2337 22.1858 23.2337C15.5647 23.2337 15.9913 17.0696 15.9913 17.0696C15.9913 17.0696 15.9913 10.8751 22.1858 10.8751C28.7131 10.8704 27.7991 17.8688 27.7991 17.8688H27.7967Z" fill="white"/>
</svg>
