<svg width="30" height="31" viewBox="0 0 30 31" fill="none" xmlns="http://www.w3.org/2000/svg">
<path fill-rule="evenodd" clip-rule="evenodd" d="M14.9999 0.833984C6.71676 0.833984 0 7.54925 0 15.8339C0 22.4614 4.29792 28.0838 10.2578 30.0675C11.0072 30.2066 11.2824 29.7421 11.2824 29.3459C11.2824 28.9882 11.2685 27.8066 11.2621 26.5532C7.0891 27.4606 6.20855 24.7834 6.20855 24.7834C5.52622 23.0496 4.54308 22.5886 4.54308 22.5886C3.1819 21.6577 4.64567 21.677 4.64567 21.677C6.15167 21.7826 6.94503 23.2228 6.94503 23.2228C8.28287 25.5154 10.4541 24.8527 11.31 24.4697C11.4446 23.5002 11.8334 22.8383 12.2624 22.4637C8.93067 22.0849 5.4281 20.7985 5.4281 15.0509C5.4281 13.4133 6.01431 12.0752 6.97384 11.0245C6.81785 10.6469 6.30443 9.12132 7.1189 7.0552C7.1189 7.0552 8.37825 6.65206 11.2447 8.59275C12.4414 8.26015 13.7249 8.09298 14.9999 8.08727C16.2741 8.09298 17.5583 8.25965 18.7573 8.59225C21.6203 6.65157 22.8781 7.05471 22.8781 7.05471C23.6946 9.12058 23.1812 10.6464 23.0254 11.024C23.9872 12.0747 24.5692 13.4128 24.5692 15.0504C24.5692 20.8116 21.0601 22.0799 17.72 22.4515C18.2583 22.917 18.7377 23.8301 18.7377 25.2293C18.7377 27.2363 18.7203 28.8516 18.7203 29.3456C18.7203 29.7448 18.9905 30.2125 19.7506 30.0652C25.707 28.0796 30 22.459 30 15.8339C29.9998 7.54975 23.2837 0.834233 14.9999 0.834233V0.833984Z" fill="white"/>
<path d="M5.68116 22.3704C5.64812 22.4449 5.53088 22.4672 5.42407 22.4163C5.31478 22.3676 5.25393 22.266 5.2892 22.1913C5.32149 22.1143 5.43898 22.0932 5.54753 22.1446C5.65682 22.1935 5.71892 22.2961 5.68091 22.3706L5.68116 22.3704ZM6.28873 23.0482C6.21744 23.1146 6.07759 23.0837 5.98271 22.9787C5.88434 22.8744 5.86596 22.7345 5.93874 22.6672C6.01276 22.6011 6.14838 22.6324 6.24675 22.7367C6.34461 22.8426 6.36399 22.9812 6.28897 23.0485L6.28873 23.0482ZM6.88039 23.9119C6.78849 23.976 6.63796 23.9161 6.54507 23.7827C6.45316 23.6491 6.45316 23.4889 6.54755 23.425C6.6402 23.361 6.78849 23.4188 6.88288 23.551C6.97429 23.6863 6.97429 23.8466 6.88039 23.9116V23.9119ZM7.6904 24.7467C7.60843 24.8374 7.43307 24.8131 7.3049 24.6896C7.17399 24.5686 7.13748 24.3965 7.2197 24.3061C7.30316 24.2152 7.47927 24.2405 7.60818 24.3632C7.73908 24.4839 7.77858 24.6563 7.6909 24.7465L7.6904 24.7467ZM8.80816 25.2313C8.77165 25.3488 8.60324 25.4022 8.43309 25.3521C8.26344 25.3006 8.15241 25.1633 8.18718 25.0446C8.22196 24.9261 8.39161 24.8707 8.56275 24.9241C8.7324 24.9753 8.84343 25.1119 8.80816 25.2313ZM10.036 25.321C10.0402 25.4447 9.89612 25.547 9.71802 25.5495C9.53843 25.5538 9.39312 25.4534 9.39139 25.3317C9.39139 25.2068 9.53247 25.1057 9.71181 25.1022C9.88991 25.099 10.0362 25.1983 10.0362 25.3208L10.036 25.321ZM11.1781 25.1268C11.1994 25.2472 11.0755 25.3712 10.8984 25.4042C10.7245 25.4365 10.563 25.3615 10.5407 25.242C10.5193 25.1183 10.6455 24.9944 10.8194 24.9623C10.9967 24.9318 11.1557 25.0046 11.1781 25.127V25.1268Z" fill="white"/>
</svg>
