<svg width="377" height="160" viewBox="0 0 377 160" fill="none" xmlns="http://www.w3.org/2000/svg">
<path d="M56.386 137.516V149H55.33V146.536C54.9487 147.343 54.384 147.973 53.636 148.428C52.888 148.868 52.008 149.088 50.996 149.088C49.5 149.088 48.3267 148.67 47.476 147.834C46.6253 146.998 46.2 145.795 46.2 144.226V137.516H47.3V144.138C47.3 145.429 47.63 146.411 48.29 147.086C48.95 147.761 49.8813 148.098 51.084 148.098C52.3747 148.098 53.394 147.695 54.142 146.888C54.9047 146.081 55.286 144.996 55.286 143.632V137.516H56.386ZM61.0488 137.516H62.1488V149H61.0488V137.516ZM61.5988 134.722C61.3495 134.722 61.1368 134.641 60.9608 134.48C60.7848 134.304 60.6968 134.091 60.6968 133.842C60.6968 133.593 60.7848 133.38 60.9608 133.204C61.1368 133.028 61.3495 132.94 61.5988 132.94C61.8481 132.94 62.0608 133.028 62.2368 133.204C62.4128 133.365 62.5008 133.571 62.5008 133.82C62.5008 134.069 62.4128 134.282 62.2368 134.458C62.0608 134.634 61.8481 134.722 61.5988 134.722ZM82.6435 132.676V149H81.5655V146.294C81.1108 147.189 80.4728 147.878 79.6515 148.362C78.8302 148.846 77.8988 149.088 76.8575 149.088C75.7868 149.088 74.8188 148.839 73.9535 148.34C73.0882 147.841 72.4062 147.152 71.9075 146.272C71.4235 145.392 71.1815 144.387 71.1815 143.258C71.1815 142.129 71.4235 141.124 71.9075 140.244C72.4062 139.349 73.0882 138.66 73.9535 138.176C74.8188 137.677 75.7868 137.428 76.8575 137.428C77.8842 137.428 78.8008 137.67 79.6075 138.154C80.4288 138.638 81.0742 139.313 81.5435 140.178V132.676H82.6435ZM76.9235 148.098C77.8035 148.098 78.5882 147.893 79.2775 147.482C79.9815 147.071 80.5315 146.499 80.9275 145.766C81.3382 145.033 81.5435 144.197 81.5435 143.258C81.5435 142.319 81.3382 141.483 80.9275 140.75C80.5315 140.017 79.9815 139.445 79.2775 139.034C78.5882 138.623 77.8035 138.418 76.9235 138.418C76.0435 138.418 75.2515 138.623 74.5475 139.034C73.8582 139.445 73.3082 140.017 72.8975 140.75C72.5015 141.483 72.3035 142.319 72.3035 143.258C72.3035 144.197 72.5015 145.033 72.8975 145.766C73.3082 146.499 73.8582 147.071 74.5475 147.482C75.2515 147.893 76.0435 148.098 76.9235 148.098ZM96.9832 143.522H87.1052C87.1346 144.417 87.3619 145.216 87.7872 145.92C88.2126 146.609 88.7846 147.145 89.5032 147.526C90.2366 147.907 91.0579 148.098 91.9672 148.098C92.7152 148.098 93.4046 147.966 94.0352 147.702C94.6806 147.423 95.2159 147.02 95.6412 146.492L96.2792 147.218C95.7806 147.819 95.1499 148.281 94.3872 148.604C93.6392 148.927 92.8252 149.088 91.9452 149.088C90.8012 149.088 89.7819 148.839 88.8872 148.34C87.9926 147.841 87.2886 147.152 86.7752 146.272C86.2766 145.392 86.0272 144.387 86.0272 143.258C86.0272 142.143 86.2619 141.146 86.7312 140.266C87.2152 139.371 87.8752 138.675 88.7112 138.176C89.5472 137.677 90.4859 137.428 91.5272 137.428C92.5686 137.428 93.4999 137.677 94.3212 138.176C95.1572 138.66 95.8099 139.342 96.2792 140.222C96.7632 141.102 97.0052 142.099 97.0052 143.214L96.9832 143.522ZM91.5272 138.396C90.7206 138.396 89.9946 138.579 89.3492 138.946C88.7039 139.298 88.1832 139.804 87.7872 140.464C87.4059 141.109 87.1859 141.843 87.1272 142.664H95.9272C95.8832 141.843 95.6632 141.109 95.2672 140.464C94.8712 139.819 94.3506 139.313 93.7052 138.946C93.0599 138.579 92.3339 138.396 91.5272 138.396ZM103.312 149.088C102.388 149.088 101.508 148.949 100.672 148.67C99.8362 148.391 99.1835 148.039 98.7142 147.614L99.2202 146.734C99.6895 147.13 100.291 147.46 101.024 147.724C101.772 147.988 102.55 148.12 103.356 148.12C104.515 148.12 105.366 147.929 105.908 147.548C106.466 147.167 106.744 146.639 106.744 145.964C106.744 145.48 106.59 145.099 106.282 144.82C105.989 144.541 105.622 144.336 105.182 144.204C104.742 144.072 104.134 143.933 103.356 143.786C102.447 143.625 101.714 143.449 101.156 143.258C100.599 143.067 100.122 142.759 99.7262 142.334C99.3302 141.909 99.1322 141.322 99.1322 140.574C99.1322 139.665 99.5062 138.917 100.254 138.33C101.017 137.729 102.095 137.428 103.488 137.428C104.222 137.428 104.948 137.531 105.666 137.736C106.385 137.941 106.972 138.213 107.426 138.55L106.92 139.43C106.451 139.093 105.916 138.836 105.314 138.66C104.713 138.484 104.097 138.396 103.466 138.396C102.396 138.396 101.589 138.594 101.046 138.99C100.504 139.386 100.232 139.907 100.232 140.552C100.232 141.065 100.386 141.469 100.694 141.762C101.002 142.041 101.376 142.253 101.816 142.4C102.271 142.532 102.902 142.679 103.708 142.84C104.603 143.001 105.322 143.177 105.864 143.368C106.422 143.544 106.891 143.837 107.272 144.248C107.654 144.659 107.844 145.223 107.844 145.942C107.844 146.895 107.448 147.658 106.656 148.23C105.864 148.802 104.75 149.088 103.312 149.088ZM110.914 137.516H112.014V149H110.914V137.516ZM111.464 134.722C111.215 134.722 111.002 134.641 110.826 134.48C110.65 134.304 110.562 134.091 110.562 133.842C110.562 133.593 110.65 133.38 110.826 133.204C111.002 133.028 111.215 132.94 111.464 132.94C111.713 132.94 111.926 133.028 112.102 133.204C112.278 133.365 112.366 133.571 112.366 133.82C112.366 134.069 112.278 134.282 112.102 134.458C111.926 134.634 111.713 134.722 111.464 134.722ZM126.99 137.516V147.768C126.99 149.675 126.528 151.083 125.604 151.992C124.68 152.901 123.287 153.356 121.424 153.356C120.368 153.356 119.371 153.195 118.432 152.872C117.494 152.549 116.738 152.102 116.166 151.53L116.76 150.694C117.332 151.222 118.022 151.633 118.828 151.926C119.635 152.219 120.493 152.366 121.402 152.366C122.928 152.366 124.057 151.999 124.79 151.266C125.524 150.547 125.89 149.425 125.89 147.9V145.964C125.421 146.8 124.768 147.445 123.932 147.9C123.096 148.355 122.158 148.582 121.116 148.582C120.046 148.582 119.07 148.347 118.19 147.878C117.325 147.394 116.643 146.727 116.144 145.876C115.646 145.025 115.396 144.065 115.396 142.994C115.396 141.923 115.646 140.963 116.144 140.112C116.643 139.261 117.325 138.601 118.19 138.132C119.07 137.663 120.046 137.428 121.116 137.428C122.172 137.428 123.126 137.663 123.976 138.132C124.827 138.601 125.48 139.261 125.934 140.112V137.516H126.99ZM121.204 147.592C122.099 147.592 122.906 147.401 123.624 147.02C124.343 146.624 124.9 146.081 125.296 145.392C125.707 144.688 125.912 143.889 125.912 142.994C125.912 142.099 125.707 141.307 125.296 140.618C124.9 139.929 124.343 139.393 123.624 139.012C122.906 138.616 122.099 138.418 121.204 138.418C120.31 138.418 119.503 138.616 118.784 139.012C118.08 139.393 117.523 139.929 117.112 140.618C116.716 141.307 116.518 142.099 116.518 142.994C116.518 143.889 116.716 144.688 117.112 145.392C117.523 146.081 118.08 146.624 118.784 147.02C119.503 147.401 120.31 147.592 121.204 147.592ZM137.256 137.428C138.694 137.428 139.83 137.846 140.666 138.682C141.502 139.518 141.92 140.721 141.92 142.29V149H140.82V142.378C140.82 141.087 140.49 140.105 139.83 139.43C139.185 138.755 138.276 138.418 137.102 138.418C135.753 138.418 134.69 138.821 133.912 139.628C133.135 140.435 132.746 141.52 132.746 142.884V149H131.646V137.516H132.702V140.002C133.098 139.195 133.685 138.565 134.462 138.11C135.254 137.655 136.186 137.428 137.256 137.428ZM163.276 149.22L161.054 146.888C160.423 147.621 159.675 148.179 158.81 148.56C157.944 148.927 156.984 149.11 155.928 149.11C154.96 149.11 154.094 148.949 153.332 148.626C152.569 148.303 151.975 147.849 151.55 147.262C151.124 146.675 150.912 146.008 150.912 145.26C150.912 144.365 151.212 143.551 151.814 142.818C152.415 142.07 153.442 141.271 154.894 140.42L154.872 140.376C154.109 139.584 153.588 138.924 153.31 138.396C153.031 137.853 152.892 137.274 152.892 136.658C152.892 135.705 153.222 134.942 153.882 134.37C154.542 133.798 155.429 133.512 156.544 133.512C157.585 133.512 158.406 133.776 159.008 134.304C159.624 134.817 159.932 135.529 159.932 136.438C159.932 137.201 159.668 137.89 159.14 138.506C158.626 139.107 157.717 139.789 156.412 140.552L160.966 145.37C161.464 144.49 161.831 143.449 162.066 142.246L162.968 142.532C162.674 143.955 162.234 145.135 161.648 146.074L163.936 148.494L163.276 149.22ZM153.926 136.658C153.926 137.142 154.05 137.611 154.3 138.066C154.549 138.506 155.04 139.115 155.774 139.892C156.991 139.188 157.827 138.594 158.282 138.11C158.736 137.611 158.964 137.061 158.964 136.46C158.964 135.815 158.751 135.309 158.326 134.942C157.9 134.561 157.306 134.37 156.544 134.37C155.722 134.37 155.077 134.583 154.608 135.008C154.153 135.419 153.926 135.969 153.926 136.658ZM155.972 148.186C157.849 148.186 159.323 147.519 160.394 146.184L155.532 141.058C154.182 141.85 153.251 142.547 152.738 143.148C152.239 143.749 151.99 144.424 151.99 145.172C151.99 146.067 152.356 146.793 153.09 147.35C153.838 147.907 154.798 148.186 155.972 148.186ZM175.62 133.534C174.183 133.534 173.464 134.304 173.464 135.844V137.516H177.138V138.462H173.486V149H172.386V138.462H170.274V137.516H172.386V135.756C172.386 134.788 172.665 134.018 173.222 133.446C173.779 132.874 174.564 132.588 175.576 132.588C176.016 132.588 176.434 132.654 176.83 132.786C177.241 132.903 177.578 133.087 177.842 133.336L177.402 134.172C176.933 133.747 176.339 133.534 175.62 133.534ZM182.202 140.024C182.554 139.188 183.104 138.55 183.852 138.11C184.6 137.655 185.51 137.428 186.58 137.428V138.506L186.316 138.484C185.04 138.484 184.043 138.887 183.324 139.694C182.606 140.486 182.246 141.593 182.246 143.016V149H181.146V137.516H182.202V140.024ZM193.992 149.088C192.907 149.088 191.924 148.839 191.044 148.34C190.179 147.841 189.497 147.152 188.998 146.272C188.499 145.377 188.25 144.373 188.25 143.258C188.25 142.143 188.499 141.146 188.998 140.266C189.497 139.371 190.179 138.675 191.044 138.176C191.924 137.677 192.907 137.428 193.992 137.428C195.077 137.428 196.053 137.677 196.918 138.176C197.798 138.675 198.487 139.371 198.986 140.266C199.485 141.146 199.734 142.143 199.734 143.258C199.734 144.373 199.485 145.377 198.986 146.272C198.487 147.152 197.798 147.841 196.918 148.34C196.053 148.839 195.077 149.088 193.992 149.088ZM193.992 148.098C194.872 148.098 195.657 147.893 196.346 147.482C197.05 147.071 197.6 146.499 197.996 145.766C198.407 145.033 198.612 144.197 198.612 143.258C198.612 142.319 198.407 141.483 197.996 140.75C197.6 140.017 197.05 139.445 196.346 139.034C195.657 138.623 194.872 138.418 193.992 138.418C193.112 138.418 192.32 138.623 191.616 139.034C190.927 139.445 190.377 140.017 189.966 140.75C189.57 141.483 189.372 142.319 189.372 143.258C189.372 144.197 189.57 145.033 189.966 145.766C190.377 146.499 190.927 147.071 191.616 147.482C192.32 147.893 193.112 148.098 193.992 148.098ZM208.756 137.428C210.194 137.428 211.33 137.846 212.166 138.682C213.002 139.518 213.42 140.721 213.42 142.29V149H212.32V142.378C212.32 141.087 211.99 140.105 211.33 139.43C210.685 138.755 209.776 138.418 208.602 138.418C207.253 138.418 206.19 138.821 205.412 139.628C204.635 140.435 204.246 141.52 204.246 142.884V149H203.146V137.516H204.202V140.002C204.598 139.195 205.185 138.565 205.962 138.11C206.754 137.655 207.686 137.428 208.756 137.428ZM223.647 148.274C223.369 148.538 223.017 148.743 222.591 148.89C222.181 149.022 221.748 149.088 221.293 149.088C220.296 149.088 219.526 148.817 218.983 148.274C218.441 147.717 218.169 146.947 218.169 145.964V138.462H216.057V137.516H218.169V135.008H219.269V137.516H222.921V138.462H219.269V145.854C219.269 146.602 219.445 147.174 219.797 147.57C220.164 147.951 220.699 148.142 221.403 148.142C222.122 148.142 222.716 147.929 223.185 147.504L223.647 148.274ZM236.009 143.522H226.131C226.16 144.417 226.387 145.216 226.813 145.92C227.238 146.609 227.81 147.145 228.529 147.526C229.262 147.907 230.083 148.098 230.993 148.098C231.741 148.098 232.43 147.966 233.061 147.702C233.706 147.423 234.241 147.02 234.667 146.492L235.305 147.218C234.806 147.819 234.175 148.281 233.413 148.604C232.665 148.927 231.851 149.088 230.971 149.088C229.827 149.088 228.807 148.839 227.913 148.34C227.018 147.841 226.314 147.152 225.801 146.272C225.302 145.392 225.053 144.387 225.053 143.258C225.053 142.143 225.287 141.146 225.757 140.266C226.241 139.371 226.901 138.675 227.737 138.176C228.573 137.677 229.511 137.428 230.553 137.428C231.594 137.428 232.525 137.677 233.347 138.176C234.183 138.66 234.835 139.342 235.305 140.222C235.789 141.102 236.031 142.099 236.031 143.214L236.009 143.522ZM230.553 138.396C229.746 138.396 229.02 138.579 228.375 138.946C227.729 139.298 227.209 139.804 226.813 140.464C226.431 141.109 226.211 141.843 226.153 142.664H234.953C234.909 141.843 234.689 141.109 234.293 140.464C233.897 139.819 233.376 139.313 232.731 138.946C232.085 138.579 231.359 138.396 230.553 138.396ZM245.044 137.428C246.481 137.428 247.618 137.846 248.454 138.682C249.29 139.518 249.708 140.721 249.708 142.29V149H248.608V142.378C248.608 141.087 248.278 140.105 247.618 139.43C246.972 138.755 246.063 138.418 244.89 138.418C243.54 138.418 242.477 138.821 241.7 139.628C240.922 140.435 240.534 141.52 240.534 142.884V149H239.434V137.516H240.49V140.002C240.886 139.195 241.472 138.565 242.25 138.11C243.042 137.655 243.973 137.428 245.044 137.428ZM264.466 132.676V149H263.388V146.294C262.933 147.189 262.295 147.878 261.474 148.362C260.652 148.846 259.721 149.088 258.68 149.088C257.609 149.088 256.641 148.839 255.776 148.34C254.91 147.841 254.228 147.152 253.73 146.272C253.246 145.392 253.004 144.387 253.004 143.258C253.004 142.129 253.246 141.124 253.73 140.244C254.228 139.349 254.91 138.66 255.776 138.176C256.641 137.677 257.609 137.428 258.68 137.428C259.706 137.428 260.623 137.67 261.43 138.154C262.251 138.638 262.896 139.313 263.366 140.178V132.676H264.466ZM258.746 148.098C259.626 148.098 260.41 147.893 261.1 147.482C261.804 147.071 262.354 146.499 262.75 145.766C263.16 145.033 263.366 144.197 263.366 143.258C263.366 142.319 263.16 141.483 262.75 140.75C262.354 140.017 261.804 139.445 261.1 139.034C260.41 138.623 259.626 138.418 258.746 138.418C257.866 138.418 257.074 138.623 256.37 139.034C255.68 139.445 255.13 140.017 254.72 140.75C254.324 141.483 254.126 142.319 254.126 143.258C254.126 144.197 254.324 145.033 254.72 145.766C255.13 146.499 255.68 147.071 256.37 147.482C257.074 147.893 257.866 148.098 258.746 148.098ZM284.962 132.676V149H283.884V146.294C283.429 147.189 282.791 147.878 281.97 148.362C281.149 148.846 280.217 149.088 279.176 149.088C278.105 149.088 277.137 148.839 276.272 148.34C275.407 147.841 274.725 147.152 274.226 146.272C273.742 145.392 273.5 144.387 273.5 143.258C273.5 142.129 273.742 141.124 274.226 140.244C274.725 139.349 275.407 138.66 276.272 138.176C277.137 137.677 278.105 137.428 279.176 137.428C280.203 137.428 281.119 137.67 281.926 138.154C282.747 138.638 283.393 139.313 283.862 140.178V132.676H284.962ZM279.242 148.098C280.122 148.098 280.907 147.893 281.596 147.482C282.3 147.071 282.85 146.499 283.246 145.766C283.657 145.033 283.862 144.197 283.862 143.258C283.862 142.319 283.657 141.483 283.246 140.75C282.85 140.017 282.3 139.445 281.596 139.034C280.907 138.623 280.122 138.418 279.242 138.418C278.362 138.418 277.57 138.623 276.866 139.034C276.177 139.445 275.627 140.017 275.216 140.75C274.82 141.483 274.622 142.319 274.622 143.258C274.622 144.197 274.82 145.033 275.216 145.766C275.627 146.499 276.177 147.071 276.866 147.482C277.57 147.893 278.362 148.098 279.242 148.098ZM299.302 143.522H289.424C289.453 144.417 289.68 145.216 290.106 145.92C290.531 146.609 291.103 147.145 291.822 147.526C292.555 147.907 293.376 148.098 294.286 148.098C295.034 148.098 295.723 147.966 296.354 147.702C296.999 147.423 297.534 147.02 297.96 146.492L298.598 147.218C298.099 147.819 297.468 148.281 296.706 148.604C295.958 148.927 295.144 149.088 294.264 149.088C293.12 149.088 292.1 148.839 291.206 148.34C290.311 147.841 289.607 147.152 289.094 146.272C288.595 145.392 288.346 144.387 288.346 143.258C288.346 142.143 288.58 141.146 289.05 140.266C289.534 139.371 290.194 138.675 291.03 138.176C291.866 137.677 292.804 137.428 293.846 137.428C294.887 137.428 295.818 137.677 296.64 138.176C297.476 138.66 298.128 139.342 298.598 140.222C299.082 141.102 299.324 142.099 299.324 143.214L299.302 143.522ZM293.846 138.396C293.039 138.396 292.313 138.579 291.668 138.946C291.022 139.298 290.502 139.804 290.106 140.464C289.724 141.109 289.504 141.843 289.446 142.664H298.246C298.202 141.843 297.982 141.109 297.586 140.464C297.19 139.819 296.669 139.313 296.024 138.946C295.378 138.579 294.652 138.396 293.846 138.396ZM311.73 137.516L306.538 149H305.416L300.246 137.516H301.412L305.988 147.79L310.608 137.516H311.73Z" fill="#C4C4C4"/>
<path d="M34.79 20.93L8.4 31.5L34.79 42.07V45.29L5.04 33.18V29.82L34.79 17.71V20.93Z" fill="#9567FF"/>
<path d="M76.8835 56L67.4335 42.35H66.8735H57.0035V56H45.6635V7H66.8735C71.2135 7 74.9702 7.72333 78.1435 9.17C81.3635 10.6167 83.8369 12.67 85.5635 15.33C87.2902 17.99 88.1535 21.14 88.1535 24.78C88.1535 28.42 87.2669 31.57 85.4935 34.23C83.7668 36.8433 81.2935 38.85 78.0735 40.25L89.0635 56H76.8835ZM76.6735 24.78C76.6735 22.0267 75.7869 19.9267 74.0135 18.48C72.2402 16.9867 69.6502 16.24 66.2435 16.24H57.0035V33.32H66.2435C69.6502 33.32 72.2402 32.5733 74.0135 31.08C75.7869 29.5867 76.6735 27.4867 76.6735 24.78ZM133.258 37.31C133.258 37.45 133.188 38.43 133.048 40.25H104.558C105.071 42.5833 106.285 44.4267 108.198 45.78C110.111 47.1333 112.491 47.81 115.338 47.81C117.298 47.81 119.025 47.53 120.518 46.97C122.058 46.3633 123.481 45.43 124.788 44.17L130.598 50.47C127.051 54.53 121.871 56.56 115.058 56.56C110.811 56.56 107.055 55.7433 103.788 54.11C100.521 52.43 98.0015 50.12 96.2281 47.18C94.4548 44.24 93.5681 40.9033 93.5681 37.17C93.5681 33.4833 94.4315 30.17 96.1581 27.23C97.9315 24.2433 100.335 21.9333 103.368 20.3C106.448 18.62 109.878 17.78 113.658 17.78C117.345 17.78 120.681 18.5733 123.668 20.16C126.655 21.7467 128.988 24.0333 130.668 27.02C132.395 29.96 133.258 33.39 133.258 37.31ZM113.728 26.04C111.255 26.04 109.178 26.74 107.498 28.14C105.818 29.54 104.791 31.4533 104.418 33.88H122.968C122.595 31.5 121.568 29.61 119.888 28.21C118.208 26.7633 116.155 26.04 113.728 26.04ZM140.528 18.34H151.448V56H140.528V18.34ZM145.988 13.09C143.982 13.09 142.348 12.5067 141.088 11.34C139.828 10.1733 139.198 8.72666 139.198 7C139.198 5.27333 139.828 3.82666 141.088 2.66C142.348 1.49333 143.982 0.909996 145.988 0.909996C147.995 0.909996 149.628 1.47 150.888 2.59C152.148 3.71 152.778 5.11 152.778 6.79C152.778 8.61 152.148 10.1267 150.888 11.34C149.628 12.5067 147.995 13.09 145.988 13.09ZM184.473 17.78C189.14 17.78 192.896 19.18 195.743 21.98C198.636 24.78 200.083 28.9333 200.083 34.44V56H189.163V36.12C189.163 33.1333 188.51 30.9167 187.203 29.47C185.896 27.9767 184.006 27.23 181.533 27.23C178.78 27.23 176.586 28.0933 174.953 29.82C173.32 31.5 172.503 34.02 172.503 37.38V56H161.583V18.34H172.013V22.75C173.46 21.1633 175.256 19.95 177.403 19.11C179.55 18.2233 181.906 17.78 184.473 17.78ZM225.171 17.78C231.005 17.78 235.485 19.18 238.611 21.98C241.738 24.7333 243.301 28.91 243.301 34.51V56H233.081V51.31C231.028 54.81 227.201 56.56 221.601 56.56C218.708 56.56 216.188 56.07 214.041 55.09C211.941 54.11 210.331 52.7567 209.211 51.03C208.091 49.3033 207.531 47.3433 207.531 45.15C207.531 41.65 208.838 38.8967 211.451 36.89C214.111 34.8833 218.195 33.88 223.701 33.88H232.381C232.381 31.5 231.658 29.68 230.211 28.42C228.765 27.1133 226.595 26.46 223.701 26.46C221.695 26.46 219.711 26.7867 217.751 27.44C215.838 28.0467 214.205 28.8867 212.851 29.96L208.931 22.33C210.985 20.8833 213.435 19.7633 216.281 18.97C219.175 18.1767 222.138 17.78 225.171 17.78ZM224.331 49.21C226.198 49.21 227.855 48.79 229.301 47.95C230.748 47.0633 231.775 45.78 232.381 44.1V40.25H224.891C220.411 40.25 218.171 41.72 218.171 44.66C218.171 46.06 218.708 47.18 219.781 48.02C220.901 48.8133 222.418 49.21 224.331 49.21ZM253.185 4.06H264.105V56H253.185V4.06ZM312.599 4.06V56H302.169V51.66C299.463 54.9267 295.543 56.56 290.409 56.56C286.863 56.56 283.643 55.7667 280.749 54.18C277.903 52.5933 275.663 50.33 274.029 47.39C272.396 44.45 271.579 41.0433 271.579 37.17C271.579 33.2967 272.396 29.89 274.029 26.95C275.663 24.01 277.903 21.7467 280.749 20.16C283.643 18.5733 286.863 17.78 290.409 17.78C295.216 17.78 298.973 19.2967 301.679 22.33V4.06H312.599ZM292.299 47.6C295.053 47.6 297.339 46.6667 299.159 44.8C300.979 42.8867 301.889 40.3433 301.889 37.17C301.889 33.9967 300.979 31.4767 299.159 29.61C297.339 27.6967 295.053 26.74 292.299 26.74C289.499 26.74 287.189 27.6967 285.369 29.61C283.549 31.4767 282.639 33.9967 282.639 37.17C282.639 40.3433 283.549 42.8867 285.369 44.8C287.189 46.6667 289.499 47.6 292.299 47.6ZM340.626 56.56C336.659 56.56 333.089 55.7433 329.916 54.11C326.789 52.43 324.339 50.12 322.566 47.18C320.793 44.24 319.906 40.9033 319.906 37.17C319.906 33.4367 320.793 30.1 322.566 27.16C324.339 24.22 326.789 21.9333 329.916 20.3C333.089 18.62 336.659 17.78 340.626 17.78C344.593 17.78 348.139 18.62 351.266 20.3C354.393 21.9333 356.843 24.22 358.616 27.16C360.389 30.1 361.276 33.4367 361.276 37.17C361.276 40.9033 360.389 44.24 358.616 47.18C356.843 50.12 354.393 52.43 351.266 54.11C348.139 55.7433 344.593 56.56 340.626 56.56ZM340.626 47.6C343.426 47.6 345.713 46.6667 347.486 44.8C349.306 42.8867 350.216 40.3433 350.216 37.17C350.216 33.9967 349.306 31.4767 347.486 29.61C345.713 27.6967 343.426 26.74 340.626 26.74C337.826 26.74 335.516 27.6967 333.696 29.61C331.876 31.4767 330.966 33.9967 330.966 37.17C330.966 40.3433 331.876 42.8867 333.696 44.8C335.516 46.6667 337.826 47.6 340.626 47.6Z" fill="white"/>
<path d="M90.3984 65V114H81.0884L56.6584 84.25V114H45.4584V65H54.8384L79.1984 94.75V65H90.3984ZM139.162 76.34V114H128.802V109.52C127.355 111.153 125.628 112.413 123.622 113.3C121.615 114.14 119.445 114.56 117.112 114.56C112.165 114.56 108.245 113.137 105.352 110.29C102.458 107.443 101.012 103.22 101.012 97.62V76.34H111.932V96.01C111.932 102.077 114.475 105.11 119.562 105.11C122.175 105.11 124.275 104.27 125.862 102.59C127.448 100.863 128.242 98.32 128.242 94.96V76.34H139.162ZM172.168 75.78C176.835 75.78 180.592 77.18 183.438 79.98C186.332 82.78 187.778 86.9333 187.778 92.44V114H176.858V94.12C176.858 91.1333 176.205 88.9167 174.898 87.47C173.592 85.9767 171.702 85.23 169.228 85.23C166.475 85.23 164.282 86.0933 162.648 87.82C161.015 89.5 160.198 92.02 160.198 95.38V114H149.278V76.34H159.708V80.75C161.155 79.1633 162.952 77.95 165.098 77.11C167.245 76.2233 169.602 75.78 172.168 75.78ZM234.977 95.31C234.977 95.45 234.907 96.43 234.767 98.25H206.277C206.79 100.583 208.004 102.427 209.917 103.78C211.83 105.133 214.21 105.81 217.057 105.81C219.017 105.81 220.744 105.53 222.237 104.97C223.777 104.363 225.2 103.43 226.507 102.17L232.317 108.47C228.77 112.53 223.59 114.56 216.777 114.56C212.53 114.56 208.774 113.743 205.507 112.11C202.24 110.43 199.72 108.12 197.947 105.18C196.174 102.24 195.287 98.9033 195.287 95.17C195.287 91.4833 196.15 88.17 197.877 85.23C199.65 82.2433 202.054 79.9333 205.087 78.3C208.167 76.62 211.597 75.78 215.377 75.78C219.064 75.78 222.4 76.5733 225.387 78.16C228.374 79.7467 230.707 82.0333 232.387 85.02C234.114 87.96 234.977 91.39 234.977 95.31ZM215.447 84.04C212.974 84.04 210.897 84.74 209.217 86.14C207.537 87.54 206.51 89.4533 206.137 91.88H224.687C224.314 89.5 223.287 87.61 221.607 86.21C219.927 84.7633 217.874 84.04 215.447 84.04ZM254.917 114.56C251.79 114.56 248.734 114.187 245.747 113.44C242.76 112.647 240.38 111.667 238.607 110.5L242.247 102.66C243.927 103.733 245.957 104.62 248.337 105.32C250.717 105.973 253.05 106.3 255.337 106.3C259.957 106.3 262.267 105.157 262.267 102.87C262.267 101.797 261.637 101.027 260.377 100.56C259.117 100.093 257.18 99.6967 254.567 99.37C251.487 98.9033 248.944 98.3667 246.937 97.76C244.93 97.1533 243.18 96.08 241.687 94.54C240.24 93 239.517 90.8067 239.517 87.96C239.517 85.58 240.194 83.48 241.547 81.66C242.947 79.7933 244.954 78.3467 247.567 77.32C250.227 76.2933 253.354 75.78 256.947 75.78C259.607 75.78 262.244 76.0833 264.857 76.69C267.517 77.25 269.71 78.0433 271.437 79.07L267.797 86.84C264.484 84.9733 260.867 84.04 256.947 84.04C254.614 84.04 252.864 84.3667 251.697 85.02C250.53 85.6733 249.947 86.5133 249.947 87.54C249.947 88.7067 250.577 89.5233 251.837 89.99C253.097 90.4567 255.104 90.9 257.857 91.32C260.937 91.8333 263.457 92.3933 265.417 93C267.377 93.56 269.08 94.61 270.527 96.15C271.974 97.69 272.697 99.8367 272.697 102.59C272.697 104.923 271.997 107 270.597 108.82C269.197 110.64 267.144 112.063 264.437 113.09C261.777 114.07 258.604 114.56 254.917 114.56ZM274.395 114H309.395V117.36H274.395V114Z" fill="#04D361"/>
</svg>
